<?xml version="1.0" standalone="no"?>
<!DOCTYPE svg PUBLIC "-//W3C//DTD SVG 20010904//EN"
 "http://www.w3.org/TR/2001/REC-SVG-20010904/DTD/svg10.dtd">
<svg version="1.0" xmlns="http://www.w3.org/2000/svg"
 width="199.000000pt" height="153.000000pt" viewBox="0 0 199.000000 153.000000"
 preserveAspectRatio="xMidYMid meet" >
<metadata>
Created by potrace 1.10, written by Peter Selinger 2001-2011
</metadata>
<g transform="translate(0.000000,153.000000) scale(0.100000,-0.100000)"
fill="#85C1E9" stroke="none">
<path d="M881 1470 c-67 -14 -140 -40 -201 -70 -68 -34 -180 -117 -180 -133 1
-7 19 -32 40 -57 29 -33 40 -40 40 -27 0 11 -9 32 -21 49 -12 16 -20 30 -18
32 27 23 121 80 162 99 128 61 312 79 447 43 75 -19 211 -83 255 -119 29 -25
30 -25 11 -46 l-18 -20 -42 28 c-187 129 -418 147 -621 51 -67 -32 -145 -94
-145 -116 0 -8 2 -14 4 -14 1 0 34 20 71 45 94 61 169 85 291 92 151 9 265
-26 383 -116 30 -22 60 -41 67 -41 20 0 96 107 90 127 -7 22 -143 114 -209
142 -114 48 -305 72 -406 51z"/>
<path d="M915 1236 c-38 -7 -95 -24 -125 -39 -59 -29 -149 -96 -149 -112 -1
-5 19 -32 44 -58 l44 -49 46 32 c26 18 72 41 103 52 106 38 245 11 328 -62 19
-16 42 -30 52 -30 17 0 102 93 102 112 0 28 -145 121 -230 146 -59 18 -142 21
-215 8z m190 -60 c58 -15 107 -38 153 -73 31 -23 32 -25 15 -47 l-17 -22 -49
33 c-65 44 -116 58 -212 58 -69 0 -89 -4 -145 -31 -36 -17 -77 -43 -91 -58
l-26 -26 -26 34 -26 34 52 35 c46 31 106 55 172 70 43 10 152 6 200 -7z"/>
<path d="M901 991 c-50 -20 -121 -76 -121 -94 0 -7 20 -33 45 -57 38 -37 45
-41 45 -23 0 11 -10 32 -21 47 -21 26 -21 28 -3 41 47 35 91 50 150 50 50 0
68 -5 106 -30 l46 -30 -24 -30 c-13 -16 -24 -24 -24 -18 0 17 -49 41 -90 43
-52 4 -88 -9 -110 -40 -31 -43 -24 -53 17 -25 59 39 92 34 179 -30 20 -15 24
-13 68 32 55 58 58 82 11 117 -86 66 -185 83 -274 47z"/>
<path d="M954 762 c-16 -11 -44 -55 -44 -69 0 -20 25 -16 45 7 10 11 26 20 35
20 20 0 50 -31 50 -51 0 -40 -55 -52 -85 -19 -10 11 -24 20 -32 20 -22 0 -15
-30 16 -61 37 -37 79 -38 120 -3 26 21 31 33 31 69 0 36 -5 48 -31 69 -30 25
-81 34 -105 18z"/>
<path d="M790 502 c-25 -12 -39 -28 -49 -58 -13 -37 -12 -44 5 -80 37 -76 128
-76 167 0 17 32 18 43 8 77 -19 62 -76 89 -131 61z m64 -12 c14 -5 32 -23 41
-40 23 -44 5 -97 -38 -115 -94 -39 -149 106 -57 152 30 15 24 15 54 3z"/>
<path d="M1226 509 c-33 -9 -46 -24 -46 -56 0 -24 32 -46 87 -58 38 -8 47 -18
38 -45 -9 -28 -45 -34 -88 -16 -20 8 -39 11 -42 7 -5 -9 37 -29 65 -32 52 -5
90 15 90 49 0 30 -16 44 -71 61 -41 14 -55 23 -57 39 -5 32 37 49 78 32 17 -7
33 -10 37 -6 17 17 -52 36 -91 25z"/>
<path d="M1410 502 c-77 -38 -74 -155 5 -188 32 -13 39 -13 70 1 48 23 71 75
56 126 -19 62 -76 89 -131 61z m65 -12 c15 -6 32 -24 41 -45 40 -96 -85 -167
-134 -75 -14 27 -9 75 10 98 10 11 29 23 55 31 1 1 13 -3 28 -9z"/>
<path d="M234 410 c-25 -60 -37 -100 -30 -100 6 0 17 13 23 30 10 28 15 30 60
30 45 0 49 -2 60 -30 6 -17 16 -30 22 -30 7 0 6 13 -5 38 -8 20 -27 65 -41
100 -14 34 -30 62 -37 62 -6 0 -30 -45 -52 -100z m77 20 l18 -40 -39 0 c-22 0
-40 2 -40 5 0 14 33 85 38 81 3 -3 13 -24 23 -46z"/>
<path d="M410 410 l0 -100 70 0 c45 0 70 4 70 11 0 8 -20 10 -60 7 l-60 -4 0
93 c0 55 -4 93 -10 93 -6 0 -10 -40 -10 -100z"/>
<path d="M580 410 c0 -60 4 -100 10 -100 6 0 10 20 10 45 l0 45 50 0 c28 0 50
5 50 10 0 6 -22 10 -50 10 l-50 0 0 38 0 39 54 -5 c33 -3 56 0 60 7 5 8 -14
11 -63 11 l-71 0 0 -100z"/>
<path d="M962 410 c-2 -87 0 -100 14 -100 15 0 16 10 11 80 -3 44 -2 80 1 79
4 0 34 -36 67 -79 33 -44 66 -79 73 -80 9 0 12 26 12 100 0 121 -18 135 -22
18 l-3 -83 -65 83 c-36 45 -69 82 -75 82 -6 0 -11 -42 -13 -100z"/>
<path d="M1708 410 c-36 -55 -61 -100 -54 -100 7 0 43 45 80 100 36 55 60 100
54 100 -7 -1 -43 -46 -80 -100z"/>
<path d="M110 424 c-30 -19 -56 -38 -57 -42 -2 -4 21 -20 49 -37 67 -38 68
-39 68 -27 0 6 -21 22 -46 37 l-46 27 43 26 c55 31 52 29 48 41 -2 5 -29 -6
-59 -25z"/>
<path d="M1820 450 c0 -5 20 -21 45 -36 25 -14 45 -29 45 -33 0 -3 -20 -17
-45 -31 -25 -14 -45 -28 -45 -32 0 -15 21 -6 94 40 l39 24 -62 39 c-67 42 -71
44 -71 29z"/>
<path d="M720 178 c0 -45 -4 -89 -9 -96 -5 -8 -21 -12 -39 -11 -18 2 -32 -1
-32 -6 0 -6 15 -11 34 -13 52 -5 66 16 68 104 0 41 1 79 2 86 1 6 -5 13 -11
16 -10 3 -13 -17 -13 -80z"/>
<path d="M790 155 l0 -105 60 0 c47 0 64 4 81 21 21 21 19 55 -6 74 -11 9 -10
14 1 30 34 46 -2 85 -81 85 l-55 0 0 -105z m120 65 c19 -36 -3 -60 -55 -60
l-45 0 0 40 0 40 45 0 c34 0 47 -5 55 -20z m10 -95 c8 -10 8 -19 0 -34 -9 -17
-20 -21 -60 -21 -50 0 -50 0 -50 33 0 19 2 36 4 38 10 9 96 -4 106 -16z"/>
<path d="M987 253 c-4 -3 -7 -51 -7 -105 0 -72 3 -98 13 -98 8 0 12 16 12 47
l0 48 48 -3 c29 -3 47 0 47 7 0 7 -21 11 -50 11 l-50 0 0 40 0 40 60 0 c33 0
60 4 60 10 0 11 -123 14 -133 3z"/>
<path d="M1270 155 c-39 -58 -65 -105 -58 -105 11 0 41 41 131 181 11 16 14
29 8 29 -6 0 -42 -47 -81 -105z"/>
<path d="M555 169 c-27 -17 -54 -35 -58 -39 -5 -4 19 -24 53 -45 34 -20 63
-35 65 -33 7 7 -10 24 -49 48 l-39 24 22 15 c85 60 89 81 6 30z"/>
<path d="M1380 192 c0 -6 20 -22 45 -36 25 -15 45 -28 45 -30 0 -2 -20 -16
-45 -30 -25 -15 -45 -32 -45 -37 0 -13 0 -12 68 26 28 17 52 35 52 40 0 6 -24
23 -53 40 -67 38 -67 38 -67 27z"/>
</g>
</svg>
